<?xml version="1.0" encoding="UTF-8"?>
<svg width="120px" height="98px" viewBox="0 0 120 98" version="1.1" xmlns="http://www.w3.org/2000/svg" xmlns:xlink="http://www.w3.org/1999/xlink">
    <!-- Generator: Sketch 42 (36781) - http://www.bohemiancoding.com/sketch -->
    <title>twitter</title>
    <desc>Created with Sketch.</desc>
    <defs></defs>
    <g id="Page-1" stroke="none" stroke-width="1" fill="none" fill-rule="evenodd">
        <g id="twitter" fill-rule="nonzero" fill="#FFFFFF">
            <path d="M119.76927,11.7455299 C115.362153,13.6997264 110.627074,15.0206921 105.656669,15.6146237 C110.729533,12.5736189 114.625762,7.75830488 116.460657,2.02016285 C111.712245,4.83636716 106.454114,6.88109197 100.856794,7.98287138 C96.3748207,3.20732431 89.9884768,0.223630811 82.9209478,0.223630811 C69.350815,0.223630811 58.3491616,11.2248164 58.3491616,24.7947152 C58.3491616,26.7206069 58.5664765,28.5959712 58.9854334,30.3946085 C38.5639169,29.369556 20.4580085,19.5873455 8.33890286,4.72080898 C6.2237671,8.34989726 5.01180975,12.5708119 5.01180975,17.074072 C5.01180975,25.599178 9.34968606,33.1202845 15.9430522,37.5267003 C11.9151244,37.3989781 8.12626645,36.2936899 4.81367659,34.4531802 C4.81133736,34.5556387 4.81133736,34.658565 4.81133736,34.7621931 C4.81133736,46.6674928 13.2814713,56.5984786 24.5219605,58.8563076 C22.4603932,59.41749 20.2893497,59.7187834 18.0483632,59.7187834 C16.4649354,59.7187834 14.9257191,59.5643939 13.4251003,59.2771359 C16.5521888,69.0387611 25.626547,76.1439518 36.3790719,76.3416171 C27.9695242,82.932644 17.3744297,86.8604525 5.86188753,86.8604525 C3.87845067,86.8604525 1.92261677,86.7444265 0.000233923442,86.5163511 C10.8743991,93.4889072 23.7904819,97.5568358 37.6668205,97.5568358 C82.8634026,97.5568358 107.579052,60.1145818 107.579052,27.6436688 C107.579052,26.5783815 107.554724,25.5187083 107.507705,24.4646493 C112.309218,21.000477 116.47516,16.6728933 119.76927,11.7455299 Z" id="Shape"></path>
        </g>
    </g>
</svg>